<?xml version="1.0" encoding="UTF-8"?>
<svg id="_레이어_2" data-name="레이어 2" xmlns="http://www.w3.org/2000/svg" viewBox="0 0 340 140">
    <defs>
        <style>
            .cls-1 {
            fill: #ec1b23;
            }

            .cls-1, .cls-2 {
            stroke-width: 0px;
            }

            .cls-2 {
            fill: none;
            }

            .cls-3 {
            clip-path: url(#clippath);
            }
        </style>
        <clipPath id="clippath">
            <rect class="cls-2" width="340" height="140"/>
        </clipPath>
    </defs>
    <g id="_추출" data-name="추출">
        <g class="cls-3">
            <g id="logo">
                <path id="_패스_3815" data-name="패스 3815" class="cls-1"
                      d="M65.31,51.01h-13.32s-2.87-.17-2.87-3.88c0,0-.68-3.54,3.37-4.22h20.58v-6.41h-20.24s-10.96-.34-11.22,11.22c0,0,.26,9.53,10.21,9.36h11.97s4.72.51,4.39,5.4c0,0,.34,4.22-5.57,4.89h-21.93v6.41h24.45s11.3-.68,10.97-11.81c0,0,.5-9.95-10.8-10.96"/>
                <path id="_패스_3816" data-name="패스 3816" class="cls-1"
                      d="M98.7,57.62h-12.23v6.07h12.65c9.2.34,8.26-6.07,8.26-6.07,0-9.61-13.91-9.87-13.91-9.87-15.85-.34-15.6,13.49-15.6,13.49.59,12.65,13.41,12.06,13.41,12.06h14.93v-5.99h-14.59c-6.58-.59-6.92-6.66-6.92-6.66,1.1-7.17,8.43-6.83,8.43-6.83,5.23.09,6.33,2.28,6.33,2.28.92,1.6-.76,1.52-.76,1.52"/>
                <path id="_패스_3817" data-name="패스 3817" class="cls-1"
                      d="M124.44,47.41c-15.95.08-15.1,13.58-15.1,13.58,0,0,0,13.75,15.43,13.16,15.43-.59,14.51-12.9,14.51-12.9,0,0,1.18-13.91-14.84-13.83M124.27,67.49c-8.01,0-7.93-6.83-7.93-6.83,0,0-.17-6.5,7.85-6.75,7.5-.24,7.76,6.66,7.76,6.66,0,0,.35,6.92-7.67,6.92"/>
                <path id="_패스_3818" data-name="패스 3818" class="cls-1"
                      d="M165.21,72.63h2.95v-5.99c-3.63.17-3.88-2.7-3.88-2.7v-15.77h-6.58v15.18s.17,3.97-5.06,3.8c-5.23-.17-5.06-4.05-5.06-4.05v-14.76h-6.66v17.54c0,4.22,5.57,7.76,11.64,7.76s8.77-2.7,8.77-2.7c.95,1.15,2.39,1.77,3.88,1.69"/>
                <path id="_패스_3819" data-name="패스 3819" class="cls-1"
                      d="M192.94,89.54v-16.89h2.02s10.04-.51,10.37-11.23c0,0-.17-9.12-9.69-9.29-9.53-.17-9.95,9.79-9.95,9.79v4.73h-6.75s-2.44.25-2.28-3.13v-30.74h-6.91v30.73s.17,8.02,7.92,9.12h8.18v14.77s-20.91-4.98-22.85,9.88c0,0-.49,8.57,13.24,9.88,0,0,11.13.93,15.52-10.55,0,0,28.59,13,41.83.34l-4.3-5.57s-9.95,10.22-36.35-1.86M176.33,101.02c-5.99-.25-5.82-3.72-5.82-3.72-.09-1.35,1.35-4.64,7.25-4.56,5.91.08,7.5,1.35,7.5,1.35.09,1.52-2.95,7.18-8.94,6.92M195.47,59.31c2.78,0,2.69,2.79,2.69,2.79,0,0,.25,4.64-5.23,4.22v-4.22s-.25-2.79,2.53-2.79"/>
                <path id="_패스_3820" data-name="패스 3820" class="cls-1"
                      d="M233.7,83.46v-16.45h-7v1.43c-4.72-2.95-8.94-2.45-8.94-2.45-14,.09-14.09,13.75-14.09,13.75.59,9.36,7.43,13.16,14.68,13.24s10.29-3.46,10.29-3.46c2.02,2.7,4.72,2.19,4.72,2.19h3.71v-6.15c-3.2,0-3.37-2.11-3.37-2.11M218.86,86.16c-7.84.34-7.84-6.58-7.84-6.58,0,0-.17-6.91,7.67-6.91s7.93,6.66,7.93,6.66c0,0,.08,6.49-7.76,6.83"/>
                <path id="_패스_3821" data-name="패스 3821" class="cls-1"
                      d="M262.88,83.21v-10.46c-.67-5.23-4.97-6.33-9.95-6.83-2.87-.34-5.75.48-8.01,2.28v-1.26h-6.41v24.63h6.58v-16.28s.25-3.46,5.48-3.54c6.01-.1,5.65,4.89,5.65,4.89v7.51c1.18,7.51,7.34,7,7.34,7h3.12v-5.91c-3.63.51-3.8-2.02-3.8-2.02"/>
                <path id="_패스_3822" data-name="패스 3822" class="cls-1"
                      d="M295.44,82.27v-31.29h-6.75v15.94c-2.53-1.26-8.01-1.77-8.01-1.77-8.94.09-14.17,6.49-14.09,13.66s5.48,13.32,13.58,13.32,10.97-3.88,10.97-3.88c1.43,3.2,5.06,2.61,5.06,2.61h3.12v-5.9c-4.05.25-3.88-2.7-3.88-2.7M289.37,78.98c0,5.82-6.58,6.58-7.85,6.49s-7.67-.58-7.67-6.66c0-6.66,7.84-6.92,7.84-6.92,8.6.42,7.67,7.08,7.67,7.08"/>
            </g>
        </g>
    </g>
</svg>